<mxfile host="app.diagrams.net" agent="Mozilla/5.0 (Windows NT 10.0; Win64; x64; rv:131.0) Gecko/20100101 Firefox/131.0" border="50" scale="3" compressed="false" locked="false" version="24.7.16">
  <diagram name="Blank" id="YmL12bMKpDGza6XwsDPr">
    <mxGraphModel dx="2634" dy="746" grid="0" gridSize="10" guides="1" tooltips="1" connect="1" arrows="1" fold="1" page="0" pageScale="1" pageWidth="827" pageHeight="1169" background="none" math="1" shadow="0">
      <root>
        <mxCell id="X5NqExCQtvZxIxQ7pmgY-0" />
        <mxCell id="1" parent="X5NqExCQtvZxIxQ7pmgY-0" />
        <mxCell id="-SHZ4iqEtb3d0l1DBx0C-26" style="edgeStyle=orthogonalEdgeStyle;rounded=0;orthogonalLoop=1;jettySize=auto;html=1;entryX=0;entryY=0.5;entryDx=0;entryDy=0;fontFamily=Helvetica;fontSize=12;fontColor=default;exitX=0.5;exitY=0;exitDx=0;exitDy=0;" edge="1" parent="1" source="-SHZ4iqEtb3d0l1DBx0C-1" target="-SHZ4iqEtb3d0l1DBx0C-2">
          <mxGeometry relative="1" as="geometry" />
        </mxCell>
        <mxCell id="-SHZ4iqEtb3d0l1DBx0C-35" style="edgeStyle=orthogonalEdgeStyle;rounded=0;orthogonalLoop=1;jettySize=auto;html=1;entryX=0;entryY=0.5;entryDx=0;entryDy=0;fontFamily=Helvetica;fontSize=12;fontColor=default;exitX=0.5;exitY=1;exitDx=0;exitDy=0;" edge="1" parent="1" source="-SHZ4iqEtb3d0l1DBx0C-1" target="-SHZ4iqEtb3d0l1DBx0C-13">
          <mxGeometry relative="1" as="geometry" />
        </mxCell>
        <mxCell id="-SHZ4iqEtb3d0l1DBx0C-1" value="&lt;div&gt;&lt;font style=&quot;font-size: 15px;&quot;&gt;&lt;b&gt;Point of Sale&lt;/b&gt;&lt;/font&gt;&lt;/div&gt;&lt;div&gt;&lt;font style=&quot;font-size: 15px;&quot;&gt;&lt;b&gt;&amp;nbsp;System&lt;br&gt;Dashboard&lt;br&gt;&lt;/b&gt;&lt;/font&gt;&lt;/div&gt;" style="rounded=1;whiteSpace=wrap;html=1;shadow=0;glass=0;gradientColor=none;" vertex="1" parent="1">
          <mxGeometry x="-472" y="429" width="150" height="150" as="geometry" />
        </mxCell>
        <mxCell id="-SHZ4iqEtb3d0l1DBx0C-23" value="" style="edgeStyle=orthogonalEdgeStyle;rounded=0;orthogonalLoop=1;jettySize=auto;html=1;fontFamily=Helvetica;fontSize=12;fontColor=default;startArrow=classic;startFill=1;" edge="1" parent="1" source="-SHZ4iqEtb3d0l1DBx0C-2" target="-SHZ4iqEtb3d0l1DBx0C-13">
          <mxGeometry relative="1" as="geometry" />
        </mxCell>
        <mxCell id="-SHZ4iqEtb3d0l1DBx0C-2" value="Inventory Management" style="rounded=1;whiteSpace=wrap;html=1;" vertex="1" parent="1">
          <mxGeometry x="-285" y="329" width="104" height="92" as="geometry" />
        </mxCell>
        <mxCell id="-SHZ4iqEtb3d0l1DBx0C-10" value="" style="verticalLabelPosition=bottom;html=1;verticalAlign=top;align=center;strokeColor=none;fillColor=#0079D1;shape=mxgraph.azure.mobile;pointerEvents=1;" vertex="1" parent="1">
          <mxGeometry x="-868" y="477" width="24" height="50" as="geometry" />
        </mxCell>
        <mxCell id="-SHZ4iqEtb3d0l1DBx0C-27" value="" style="edgeStyle=orthogonalEdgeStyle;rounded=0;orthogonalLoop=1;jettySize=auto;html=1;fontFamily=Helvetica;fontSize=12;fontColor=default;entryX=0;entryY=0.5;entryDx=0;entryDy=0;" edge="1" parent="1" source="-SHZ4iqEtb3d0l1DBx0C-11" target="-SHZ4iqEtb3d0l1DBx0C-42">
          <mxGeometry relative="1" as="geometry">
            <mxPoint x="-725.9999999999998" y="451" as="targetPoint" />
          </mxGeometry>
        </mxCell>
        <mxCell id="-SHZ4iqEtb3d0l1DBx0C-11" value="" style="verticalLabelPosition=bottom;html=1;verticalAlign=top;align=center;strokeColor=none;fillColor=#0079D1;shape=mxgraph.azure.tablet;pointerEvents=1;gradientColor=none;" vertex="1" parent="1">
          <mxGeometry x="-829.5" y="479.5" width="63" height="47.5" as="geometry" />
        </mxCell>
        <mxCell id="-SHZ4iqEtb3d0l1DBx0C-12" value="iOs/Android" style="text;html=1;align=center;verticalAlign=middle;whiteSpace=wrap;rounded=0;" vertex="1" parent="1">
          <mxGeometry x="-868" y="438" width="103.5" height="30" as="geometry" />
        </mxCell>
        <mxCell id="-SHZ4iqEtb3d0l1DBx0C-30" value="" style="edgeStyle=orthogonalEdgeStyle;rounded=0;orthogonalLoop=1;jettySize=auto;html=1;fontFamily=Helvetica;fontSize=12;fontColor=default;" edge="1" parent="1" source="-SHZ4iqEtb3d0l1DBx0C-13" target="-SHZ4iqEtb3d0l1DBx0C-2">
          <mxGeometry relative="1" as="geometry" />
        </mxCell>
        <mxCell id="-SHZ4iqEtb3d0l1DBx0C-61" value="Updates item inventory" style="edgeLabel;html=1;align=center;verticalAlign=middle;resizable=0;points=[];pointerEvents=1;fontFamily=Helvetica;fontSize=12;fontColor=default;fillColor=#0079D1;gradientColor=none;" vertex="1" connectable="0" parent="-SHZ4iqEtb3d0l1DBx0C-30">
          <mxGeometry x="0.0429" y="-1" relative="1" as="geometry">
            <mxPoint as="offset" />
          </mxGeometry>
        </mxCell>
        <mxCell id="-SHZ4iqEtb3d0l1DBx0C-13" value="Transaction Handler" style="rounded=1;whiteSpace=wrap;html=1;" vertex="1" parent="1">
          <mxGeometry x="-285" y="561" width="104" height="92" as="geometry" />
        </mxCell>
        <mxCell id="-SHZ4iqEtb3d0l1DBx0C-22" value="" style="edgeStyle=orthogonalEdgeStyle;rounded=0;orthogonalLoop=1;jettySize=auto;html=1;fontFamily=Helvetica;fontSize=12;fontColor=default;startArrow=classic;startFill=1;exitX=0;exitY=0.5;exitDx=0;exitDy=0;" edge="1" parent="1" source="-SHZ4iqEtb3d0l1DBx0C-40" target="-SHZ4iqEtb3d0l1DBx0C-2">
          <mxGeometry relative="1" as="geometry" />
        </mxCell>
        <mxCell id="-SHZ4iqEtb3d0l1DBx0C-33" value="Stores/Retrieves store inventory" style="edgeLabel;html=1;align=center;verticalAlign=middle;resizable=0;points=[];pointerEvents=1;fontFamily=Helvetica;fontSize=12;fontColor=default;fillColor=#0079D1;gradientColor=none;" vertex="1" connectable="0" parent="-SHZ4iqEtb3d0l1DBx0C-22">
          <mxGeometry x="0.01" relative="1" as="geometry">
            <mxPoint y="1" as="offset" />
          </mxGeometry>
        </mxCell>
        <mxCell id="-SHZ4iqEtb3d0l1DBx0C-20" value="" style="group" vertex="1" connectable="0" parent="1">
          <mxGeometry x="-27" y="565" width="120" height="77" as="geometry" />
        </mxCell>
        <object label="&lt;font face=&quot;Times New Roman&quot; color=&quot;#000000&quot;&gt;Payment&lt;/font&gt;" PaymentService="" id="-SHZ4iqEtb3d0l1DBx0C-14">
          <mxCell style="html=1;whiteSpace=wrap;strokeColor=none;fillColor=#0079D1;labelPosition=center;verticalLabelPosition=middle;verticalAlign=top;align=center;fontSize=0;outlineConnect=0;spacingTop=-6;fontColor=#FFFFFF;sketch=0;shape=mxgraph.sitemap.payment;" vertex="1" parent="-SHZ4iqEtb3d0l1DBx0C-20">
            <mxGeometry y="7" width="120" height="70" as="geometry" />
          </mxCell>
        </object>
        <mxCell id="-SHZ4iqEtb3d0l1DBx0C-19" value="Payment Service" style="text;html=1;align=center;verticalAlign=middle;whiteSpace=wrap;rounded=0;fontFamily=Helvetica;fontSize=12;fontColor=default;fontStyle=1" vertex="1" parent="-SHZ4iqEtb3d0l1DBx0C-20">
          <mxGeometry x="6.5" width="107" height="30" as="geometry" />
        </mxCell>
        <mxCell id="-SHZ4iqEtb3d0l1DBx0C-21" value="Processes non-cash&lt;br&gt; Payments" style="edgeStyle=orthogonalEdgeStyle;rounded=0;orthogonalLoop=1;jettySize=auto;html=1;fontFamily=Helvetica;fontSize=12;fontColor=default;" edge="1" parent="1" source="-SHZ4iqEtb3d0l1DBx0C-13" target="-SHZ4iqEtb3d0l1DBx0C-14">
          <mxGeometry relative="1" as="geometry" />
        </mxCell>
        <mxCell id="-SHZ4iqEtb3d0l1DBx0C-41" value="" style="group" vertex="1" connectable="0" parent="1">
          <mxGeometry x="-7" y="226" width="93" height="100" as="geometry" />
        </mxCell>
        <mxCell id="-SHZ4iqEtb3d0l1DBx0C-40" value="" style="image;aspect=fixed;perimeter=ellipsePerimeter;html=1;align=center;shadow=0;dashed=0;spacingTop=3;image=img/lib/active_directory/database_server.svg;pointerEvents=1;verticalAlign=top;fontFamily=Helvetica;fontSize=12;fontColor=default;fillColor=#0079D1;gradientColor=none;" vertex="1" parent="-SHZ4iqEtb3d0l1DBx0C-41">
          <mxGeometry x="6.800000000000001" y="30" width="57.4" height="70" as="geometry" />
        </mxCell>
        <mxCell id="-SHZ4iqEtb3d0l1DBx0C-17" value="Retail Server + Database" style="text;html=1;align=center;verticalAlign=middle;whiteSpace=wrap;rounded=0;" vertex="1" parent="-SHZ4iqEtb3d0l1DBx0C-41">
          <mxGeometry width="93" height="30" as="geometry" />
        </mxCell>
        <mxCell id="-SHZ4iqEtb3d0l1DBx0C-48" value="" style="edgeStyle=orthogonalEdgeStyle;rounded=0;orthogonalLoop=1;jettySize=auto;html=1;fontFamily=Helvetica;fontSize=12;fontColor=default;entryX=0;entryY=0.5;entryDx=0;entryDy=0;" edge="1" parent="1" source="-SHZ4iqEtb3d0l1DBx0C-42" target="-SHZ4iqEtb3d0l1DBx0C-46">
          <mxGeometry relative="1" as="geometry" />
        </mxCell>
        <mxCell id="-SHZ4iqEtb3d0l1DBx0C-49" value="" style="edgeStyle=orthogonalEdgeStyle;rounded=0;orthogonalLoop=1;jettySize=auto;html=1;fontFamily=Helvetica;fontSize=12;fontColor=default;" edge="1" parent="1" source="-SHZ4iqEtb3d0l1DBx0C-42" target="-SHZ4iqEtb3d0l1DBx0C-47">
          <mxGeometry relative="1" as="geometry" />
        </mxCell>
        <mxCell id="-SHZ4iqEtb3d0l1DBx0C-42" value="&lt;div&gt;Login Service&lt;/div&gt;&lt;div&gt;&lt;br&gt;&lt;/div&gt;" style="image;aspect=fixed;perimeter=ellipsePerimeter;html=1;align=center;shadow=0;dashed=0;spacingTop=3;image=img/lib/active_directory/security.svg;pointerEvents=1;verticalAlign=top;fontFamily=Helvetica;fontSize=12;fontColor=default;fillColor=#0079D1;gradientColor=none;" vertex="1" parent="1">
          <mxGeometry x="-722" y="472.7" width="38.5" height="61.11" as="geometry" />
        </mxCell>
        <mxCell id="-SHZ4iqEtb3d0l1DBx0C-50" value="" style="edgeStyle=orthogonalEdgeStyle;rounded=0;orthogonalLoop=1;jettySize=auto;html=1;fontFamily=Helvetica;fontSize=12;fontColor=default;" edge="1" parent="1" source="-SHZ4iqEtb3d0l1DBx0C-46" target="-SHZ4iqEtb3d0l1DBx0C-1">
          <mxGeometry relative="1" as="geometry" />
        </mxCell>
        <mxCell id="-SHZ4iqEtb3d0l1DBx0C-46" value="Admin&lt;br&gt;&lt;div&gt;Login&lt;/div&gt;" style="rounded=1;whiteSpace=wrap;html=1;" vertex="1" parent="1">
          <mxGeometry x="-635" y="508.5" width="62.75" height="63" as="geometry" />
        </mxCell>
        <mxCell id="-SHZ4iqEtb3d0l1DBx0C-51" value="" style="edgeStyle=orthogonalEdgeStyle;rounded=0;orthogonalLoop=1;jettySize=auto;html=1;fontFamily=Helvetica;fontSize=12;fontColor=default;" edge="1" parent="1" source="-SHZ4iqEtb3d0l1DBx0C-47" target="-SHZ4iqEtb3d0l1DBx0C-1">
          <mxGeometry relative="1" as="geometry" />
        </mxCell>
        <mxCell id="-SHZ4iqEtb3d0l1DBx0C-47" value="Employee&lt;br&gt;&lt;div&gt;Login&lt;/div&gt;" style="rounded=1;whiteSpace=wrap;html=1;" vertex="1" parent="1">
          <mxGeometry x="-635" y="429" width="62.75" height="63" as="geometry" />
        </mxCell>
        <mxCell id="-SHZ4iqEtb3d0l1DBx0C-55" value="" style="group" vertex="1" connectable="0" parent="1">
          <mxGeometry x="-485" y="711" width="82.43000000000006" height="94" as="geometry" />
        </mxCell>
        <mxCell id="-SHZ4iqEtb3d0l1DBx0C-37" value="&lt;hr&gt;" style="image;aspect=fixed;perimeter=ellipsePerimeter;html=1;align=center;shadow=0;dashed=0;spacingTop=3;image=img/lib/active_directory/database.svg;imageBorder=none;imageBackground=default;container=0;" vertex="1" parent="-SHZ4iqEtb3d0l1DBx0C-55">
          <mxGeometry y="33" width="82.43" height="61" as="geometry" />
        </mxCell>
        <mxCell id="-SHZ4iqEtb3d0l1DBx0C-38" value="Transaction&lt;br&gt;Database" style="text;html=1;align=center;verticalAlign=middle;whiteSpace=wrap;rounded=0;container=0;" vertex="1" parent="-SHZ4iqEtb3d0l1DBx0C-55">
          <mxGeometry x="14" width="60" height="30" as="geometry" />
        </mxCell>
        <mxCell id="-SHZ4iqEtb3d0l1DBx0C-60" value="" style="edgeStyle=orthogonalEdgeStyle;rounded=0;orthogonalLoop=1;jettySize=auto;html=1;fontFamily=Helvetica;fontSize=12;fontColor=default;" edge="1" parent="1" source="-SHZ4iqEtb3d0l1DBx0C-57" target="-SHZ4iqEtb3d0l1DBx0C-38">
          <mxGeometry relative="1" as="geometry" />
        </mxCell>
        <mxCell id="-SHZ4iqEtb3d0l1DBx0C-57" value="" style="image;aspect=fixed;perimeter=ellipsePerimeter;html=1;align=center;shadow=0;dashed=0;spacingTop=3;image=img/lib/active_directory/security.svg;pointerEvents=1;verticalAlign=top;fontFamily=Helvetica;fontSize=12;fontColor=default;fillColor=#0079D1;gradientColor=none;" vertex="1" parent="1">
          <mxGeometry x="-463" y="599" width="45.75" height="72.62" as="geometry" />
        </mxCell>
        <mxCell id="-SHZ4iqEtb3d0l1DBx0C-58" value="" style="endArrow=classic;html=1;rounded=0;fontFamily=Helvetica;fontSize=12;fontColor=default;entryX=0;entryY=0.5;entryDx=0;entryDy=0;exitX=0.5;exitY=1;exitDx=0;exitDy=0;" edge="1" parent="1" source="-SHZ4iqEtb3d0l1DBx0C-46" target="-SHZ4iqEtb3d0l1DBx0C-57">
          <mxGeometry width="50" height="50" relative="1" as="geometry">
            <mxPoint x="-537" y="740" as="sourcePoint" />
            <mxPoint x="-487" y="690" as="targetPoint" />
            <Array as="points">
              <mxPoint x="-604" y="636" />
            </Array>
          </mxGeometry>
        </mxCell>
        <mxCell id="-SHZ4iqEtb3d0l1DBx0C-59" value="" style="endArrow=classic;html=1;rounded=0;fontFamily=Helvetica;fontSize=12;fontColor=default;entryX=1;entryY=0.5;entryDx=0;entryDy=0;exitX=0.5;exitY=1;exitDx=0;exitDy=0;" edge="1" parent="1" source="-SHZ4iqEtb3d0l1DBx0C-13" target="-SHZ4iqEtb3d0l1DBx0C-57">
          <mxGeometry width="50" height="50" relative="1" as="geometry">
            <mxPoint x="-354" y="646" as="sourcePoint" />
            <mxPoint x="-304" y="596" as="targetPoint" />
            <Array as="points">
              <mxPoint x="-233" y="672" />
              <mxPoint x="-386" y="672" />
            </Array>
          </mxGeometry>
        </mxCell>
      </root>
    </mxGraphModel>
  </diagram>
</mxfile>
